<svg width="26" height="26" viewBox="0 0 26 26" xmlns="http://www.w3.org/2000/svg" xmlns:xlink="http://www.w3.org/1999/xlink"><defs><linearGradient x1="0%" y1="0%" x2="98.361%" y2="98.361%" id="c"><stop stop-color="#EF3000" offset="0%"/><stop stop-color="#FFA000" offset="100%"/></linearGradient><path d="M12.406 4.5h.08a4.832 4.832 0 0 1 4.827 4.828c0 1.36-.565 2.59-1.473 3.468a7.993 7.993 0 0 1 2.134 1.528 7.936 7.936 0 0 1 2.339 5.647l-.5.5h-1.17l-.5-.5a5.823 5.823 0 0 0-5.737-5.816 5.823 5.823 0 0 0-5.736 5.816l-.5.5H5l-.5-.5c0-2.132.831-4.14 2.339-5.647a7.993 7.993 0 0 1 2.133-1.528A4.814 4.814 0 0 1 7.5 9.328 4.832 4.832 0 0 1 12.406 4.5Zm.08 7.485a2.661 2.661 0 0 0 2.657-2.657 2.661 2.661 0 0 0-2.658-2.658 2.661 2.661 0 0 0-2.657 2.658 2.661 2.661 0 0 0 2.657 2.657Z" id="a"/></defs><g fill="none" fill-rule="evenodd"><mask id="b" fill="#fff"><use xlink:href="#a"/></mask><g mask="url(#b)" fill="url(#c)"><path d="M0 0h26v26H0z"/></g></g></svg>