<svg width="26" height="26" viewBox="0 0 26 26" xmlns="http://www.w3.org/2000/svg" xmlns:xlink="http://www.w3.org/1999/xlink"><defs><path d="M20.701 17.07a7.646 7.646 0 0 0 0-10.83c-2.998-2.986-7.876-2.986-10.874 0-2.543 2.533-2.928 6.3-1.157 9.242 0 0 .128.213-.044.384l-3.923 3.907c-.78.778-.967 1.865-.274 2.555l.119.119c.692.69 1.784.504 2.565-.273l3.915-3.9c.18-.179.393-.052.393-.052a7.562 7.562 0 0 0 9.28-1.152Zm-9.454-1.414a5.649 5.649 0 0 1 0-8.003 5.705 5.705 0 0 1 8.034 0 5.649 5.649 0 0 1 0 8.003 5.704 5.704 0 0 1-8.034 0Zm.536-4.706a.783.783 0 0 0 .721-.467c.723-1.668 2.7-2.45 4.408-1.745a.79.79 0 0 0 1.026-.406.758.758 0 0 0-.416-1.002c-2.503-1.034-5.4.113-6.46 2.557a.758.758 0 0 0 .416 1.002.8.8 0 0 0 .305.06Z" id="a"/></defs><g fill="none" fill-rule="evenodd"><mask id="b" fill="#fff"><use xlink:href="#a"/></mask><g mask="url(#b)" fill="#2C2C2C"><path d="M0 0h26v26H0z"/></g></g></svg>