<svg xmlns="http://www.w3.org/2000/svg" width="36" height="25" viewBox="0 0 36 25"><path d="m6.208 11.654-4.788-2a.866.866 0 0 0-1.154.517l-.219.634a.868.868 0 0 0 .591 1.12l5.006 1.368a.867.867 0 0 0 .564-1.637Zm-.062 9.105-4.8 1.969a.867.867 0 0 0-.451 1.182l.294.6a.868.868 0 0 0 1.21.373l4.508-2.573a.867.867 0 0 0-.759-1.555ZM12.744 6.45a.868.868 0 0 0 .422-1.109l-1.969-4.8a.867.867 0 0 0-1.183-.45l-.6.294a.868.868 0 0 0-.373 1.21l2.573 4.508a.867.867 0 0 0 1.13.347Zm22.501 8.807c-1.257.235-3.7.7-4.526.9-2.161-2.1-7.8-7.388-13.466-9.318a.5.5 0 0 0-.626.3 59.238 59.238 0 0 0-2.157 7.913 59.8 59.8 0 0 0-1.4 8.083.5.5 0 0 0 .439.535c5.957.648 13.3-1.757 16.149-2.744.657.535 2.679 1.991 3.718 2.739a.636.636 0 0 0 .965-.291 32.612 32.612 0 0 0 1.652-7.444.636.636 0 0 0-.748-.673Zm-11.357-.969a43.04 43.04 0 0 0-6.422.7.535.535 0 0 1-.563-.26l-.015-.03a.545.545 0 0 1-.06-.214v-.044a.562.562 0 0 1 .011-.113c.426-1.822.791-3.2 1.083-4.209a.544.544 0 0 1 .761-.339 32.555 32.555 0 0 1 5.522 3.539.544.544 0 0 1-.317.97Z" fill="#fff"/></svg>