<svg width="26" height="26" viewBox="0 0 26 26" xmlns="http://www.w3.org/2000/svg"><g fill="none" fill-rule="evenodd"><path d="M21.39 12.295v.701a1.01 1.01 0 0 1-1.01 1.012h-.573c.485.034.87.44.87.935v.784c0 .518-.42.938-.938.938h-.803c.467 0 .846.379.846.847v.676a.847.847 0 0 1-.846.847h-.778c.467 0 .846.38.846.847v.505a.847.847 0 0 1-.846.847H6.79v-8.191c1.312 0 2.367-.133 3.213-.362 2.706-.731 3.269-2.447 3.269-3.951V5.961a.652.652 0 0 1 .65-.651c1.158 0 2.096.939 2.096 2.098v2.712c0 .642.52 1.163 1.161 1.163h3.2c.558 0 1.01.453 1.01 1.012" fill="#FFC197"/><path d="M9.782 12.738c-.807.194-1.79.305-2.991.305v8.191h2.99v-8.496Z" fill="#FF9E5C"/><path d="M8.618 21.974H5.44a.442.442 0 0 1-.44-.442v-8.938c0-.245.198-.442.441-.442h3.177c.243 0 .441.197.441.442v8.938a.442.442 0 0 1-.441.442" fill="#ED5144"/><path d="M7.03 21.298a.414.414 0 0 1-.414-.415v-.093a.414.414 0 1 1 .827 0v.093a.414.414 0 0 1-.413.415m0-1.058a.414.414 0 0 1-.414-.414v-.093a.414.414 0 1 1 .827 0v.093a.414.414 0 0 1-.413.415" fill="#FFF"/></g></svg>