<svg width="26" height="26" viewBox="0 0 26 26" xmlns="http://www.w3.org/2000/svg" xmlns:xlink="http://www.w3.org/1999/xlink"><defs><path d="M13.34 7C9.346 7 5.868 9.508 4 13.227c1.868 3.719 5.346 6.226 9.34 6.226 3.993 0 7.471-2.507 9.34-6.226C20.81 9.508 17.333 7 13.34 7Zm0 10.118a3.892 3.892 0 1 1 0-7.783 3.892 3.892 0 0 1 0 7.783Zm2.335-3.891a2.335 2.335 0 1 0-4.67 0 2.335 2.335 0 0 0 4.67 0Z" id="a"/></defs><g fill="none" fill-rule="evenodd"><mask id="b" fill="#fff"><use xlink:href="#a"/></mask><g mask="url(#b)" fill="#FFF"><path d="M0 0h26v26H0z"/></g></g></svg>