<svg width="26" height="26" viewBox="0 0 26 26" xmlns="http://www.w3.org/2000/svg" xmlns:xlink="http://www.w3.org/1999/xlink"><defs><linearGradient x1="0%" y1="0%" x2="98.361%" y2="98.361%" id="c"><stop stop-color="#EF3000" offset="0%"/><stop stop-color="#FFA000" offset="100%"/></linearGradient><path d="M16.67 16.274c.285.456.58 1.019.816 2.04.16.692.038 1.282-.36 1.756-.53.63-1.444.882-1.895.893a5.437 5.437 0 0 1-.42-.007l-.024-.001c-1.263-.083-2.335-.65-3.189-1.684-.178-.216-.87-1.213-1.602-2.269-.466-.672-.948-1.366-1.286-1.843-.18-.253-1.698-2.531.331-4.5 1.382-1.338 3.091-2.017 5.08-2.017.177 0 .357.006.537.016 1.466.089 2.145.875 2.457 1.52.576 1.192.294 2.693-.161 3.243-1.249 1.51-1.004 1.846-.56 2.455.087.117.183.25.276.398Zm1.508-10.627c.266.283.398.646.372 1.021-.05.74-.711 1.32-1.504 1.32l-.099-.003a1.54 1.54 0 0 1-1.036-.477 1.345 1.345 0 0 1-.372-1.021c.054-.77.768-1.366 1.603-1.316.402.024.77.193 1.036.476Zm-4.597 1.536a1.193 1.193 0 0 1-.803-.369c-.206-.22-.308-.5-.288-.792.041-.596.595-1.059 1.242-1.02.312.02.597.15.803.37.206.219.309.5.289.791-.04.574-.552 1.023-1.166 1.023a.99.99 0 0 1-.077-.003Zm-2.87.707c-.615-.037-1.084-.536-1.044-1.111.04-.572.57-1.015 1.19-.977.298.018.57.143.768.354.197.21.296.479.276.758-.038.549-.528.979-1.116.979a.89.89 0 0 1-.073-.003Zm-2.21 1.315-.067-.002c-.564-.035-.994-.491-.957-1.019.036-.523.522-.928 1.09-.894.564.034.993.49.956 1.018-.034.503-.484.897-1.022.897Zm-1.591.198c.47.028.828.409.797.848-.029.419-.403.747-.852.747a.94.94 0 0 1-.055-.001c-.47-.029-.828-.41-.798-.849.03-.436.434-.774.908-.745Z" id="a"/></defs><g fill="none" fill-rule="evenodd"><mask id="b" fill="#fff"><use xlink:href="#a"/></mask><use fill="#BDCAD0" xlink:href="#a"/><g mask="url(#b)" fill="url(#c)"><path d="M0 0h26v26H0z"/></g></g></svg>