<svg width="26" height="26" viewBox="0 0 26 26" xmlns="http://www.w3.org/2000/svg" xmlns:xlink="http://www.w3.org/1999/xlink"><defs><path id="a" d="M0 0h.94v3.124H0z"/></defs><g fill="none" fill-rule="evenodd"><path d="M5.316 14.95s-.655-.575-.048-1.198c.607-.622 1.262-.045 1.262-.045l3.043 2.675c-.048-.043.211-.392.173-.426l-4.223-3.713s-.655-.576-.049-1.197C6.082 10.424 6.737 11 6.737 11l3.972 3.492c-.01-.009.286-.327.28-.332l-4.604-4.048s-.655-.576-.048-1.198 1.262-.046 1.262-.046l4.604 4.049c.006.004.322-.297.33-.288L8.23 8.845s-.655-.576-.048-1.198 1.263-.045 1.263-.045l4.55 4c1.347 1.185 1.651.874 1.651.874l-1.217-1.07-1.405-1.235s-.655-.576-.048-1.198c.608-.622 1.263-.046 1.263-.046l3.604 3.17c2.171 1.908 2.301 5.127.29 7.188-2.012 2.061-5.403 2.184-7.575.275-.114-.1-.32-.295-.311-.305l-.016.017-4.915-4.321Z" fill="#D2A077"/><path d="M6.68 14.081s-.656-.576-.049-1.198c.607-.623 1.262-.047 1.262-.047l3.043 2.676c-.048-.043.212-.392.173-.426l-4.223-3.712s-.655-.576-.048-1.199c.607-.622 1.262-.045 1.262-.045l3.972 3.492c-.01-.009.287-.326.28-.331L7.749 9.24s-.655-.575-.048-1.197c.607-.622 1.262-.046 1.262-.046l4.604 4.048c.006.005.321-.295.33-.287L9.595 7.975s-.656-.576-.049-1.198 1.263-.046 1.263-.046l4.55 4.001c1.347 1.185 1.652.874 1.652.874l-1.218-1.07-1.404-1.235s-.655-.576-.049-1.198c.608-.622 1.263-.046 1.263-.046l3.604 3.169c2.171 1.909 2.301 5.128.29 7.189-2.012 2.061-5.403 2.184-7.574.275-.115-.1-.32-.296-.312-.305l-.016.017-4.915-4.321Z" fill="#F3D2A2"/><path d="M16.042 7.882c-.1 0-.202-.03-.287-.093a.431.431 0 0 1-.085-.626l1.4-1.72a.486.486 0 0 1 .66-.08.43.43 0 0 1 .084.625l-1.4 1.72a.478.478 0 0 1-.372.174" fill="#FFAC33"/><g transform="translate(12.966 5)"><mask id="b" fill="#fff"><use xlink:href="#a"/></mask><path d="M.47 3.124c-.26 0-.47-.2-.47-.447V.447C0 .2.21 0 .47 0s.47.2.47.446v2.231c0 .247-.21.447-.47.447" fill="#FFAC33" mask="url(#b)"/></g><path d="M17.864 9.314a.469.469 0 0 1-.442-.294.44.44 0 0 1 .281-.572l2.155-.744a.477.477 0 0 1 .602.267.44.44 0 0 1-.28.572l-2.156.744a.495.495 0 0 1-.16.027" fill="#FFAC33"/></g></svg>