<svg width="28" height="28" viewBox="0 0 28 28" xmlns="http://www.w3.org/2000/svg"><path d="m8.67 12.395 5.734-5.735a.478.478 0 0 0-.338-.816H2.598a.477.477 0 0 0-.338.816l5.734 5.735a.48.48 0 0 0 .676 0ZM3.751 6.8h9.162l-4.58 4.58L3.75 6.8Zm10.757 15.06a.477.477 0 0 1-.442.296H2.598a.478.478 0 0 1-.338-.816l5.734-5.735a.478.478 0 0 1 .676 0l5.734 5.735a.478.478 0 0 1 .104.52ZM4.03 14.033a.478.478 0 0 1-.478.478h-1.91a.478.478 0 1 1 0-.956h1.911c.265 0 .478.214.478.478Zm3.823 0a.478.478 0 0 1-.478.478h-1.91a.478.478 0 1 1 0-.956h1.911c.264 0 .478.214.478.478Zm3.823 0a.478.478 0 0 1-.478.478h-1.91a.478.478 0 1 1 0-.956h1.911c.264 0 .478.214.478.478Zm3.823 0a.478.478 0 0 1-.478.478H13.11a.478.478 0 1 1 0-.956h1.911c.264 0 .478.214.478.478Zm3.437 8.859a.44.44 0 0 0-.01-.621l-.568-.549a7.561 7.561 0 0 0 4.35-2.243 7.57 7.57 0 0 0 2.138-5.423 7.563 7.563 0 0 0-2.324-5.346A7.564 7.564 0 0 0 17.1 6.575a.438.438 0 0 0-.431.447.44.44 0 0 0 .447.432 6.69 6.69 0 0 1 4.797 1.889c2.672 2.58 2.746 6.853.165 9.526a6.69 6.69 0 0 1-3.572 1.938l.387-.401a.44.44 0 1 0-.632-.61l-1.22 1.264a.439.439 0 0 0-.028.031l-.026.036-.021.037-.018.039-.014.04-.01.042a.44.44 0 0 0 .127.396l1.265 1.222a.44.44 0 0 0 .621-.01Z" fill="#FFF" fill-rule="evenodd"/></svg>