<svg width="68" height="68" viewBox="0 0 68 68" xmlns="http://www.w3.org/2000/svg" xmlns:xlink="http://www.w3.org/1999/xlink"><defs><radialGradient cx="50%" cy="0%" fx="50%" fy="0%" r="100.026%" gradientTransform="scale(.77494 1) rotate(88.688 .573 .074)" id="b"><stop stop-color="#FFD568" offset="0%"/><stop stop-color="#AA9D57" offset="100%"/></radialGradient><radialGradient cx="50%" cy="0%" fx="50%" fy="0%" r="100.016%" id="d"><stop stop-color="#FFD568" offset="0%"/><stop stop-color="#AA9D57" offset="100%"/></radialGradient><path d="M58.846 24.953a4.3 4.3 0 0 1-4.3 4.3 4.42 4.42 0 0 1-.771-.072l-3.53 12.603v4.529H20.371v-4.706L16.87 29.176c-.26.049-.528.078-.8.078a4.3 4.3 0 0 1-4.3-4.301 4.301 4.301 0 1 1 8.271 1.65c4.295 1.448 10.93 2.63 13.914-2.367a4.299 4.299 0 1 1 2.708 0c1.743 3.218 5.625 6.581 14.092 2.745a4.299 4.299 0 0 1 3.789-6.329 4.301 4.301 0 0 1 4.302 4.3ZM20.371 52.338v-4.075h29.874v4.075H20.371Zm16.881-11.556h-1.506v-7.494h-1.362l-2.676 2.268.522.702a.515.515 0 0 0 .516.174.602.602 0 0 0 .234-.114l1.14-.948a9.641 9.641 0 0 0-.024.648v4.764h-1.728V42h4.884v-1.218Z" id="a"/></defs><g fill="none" fill-rule="evenodd"><mask id="c" fill="#fff"><use xlink:href="#a"/></mask><use fill="url(#b)" xlink:href="#a"/><g mask="url(#c)" fill="url(#d)"><path d="M0 0h68v68H0z"/></g></g></svg>