<svg width="26" height="26" viewBox="0 0 26 26" xmlns="http://www.w3.org/2000/svg" xmlns:xlink="http://www.w3.org/1999/xlink"><defs><linearGradient x1="0%" y1="0%" x2="98.361%" y2="98.361%" id="c"><stop stop-color="#EF3000" offset="0%"/><stop stop-color="#FFA000" offset="100%"/></linearGradient><path d="M22.5 9.54a1.644 1.644 0 0 1-1.939 1.617l-1.35 4.82v1.73H7.79V15.91l-1.34-4.755a1.644 1.644 0 1 1 1.212-.984c1.643.554 4.18 1.006 5.32-.904a1.644 1.644 0 1 1 1.036 0c.667 1.23 2.151 2.516 5.388 1.05A1.644 1.644 0 1 1 22.5 9.54ZM7.789 20.013H19.21v-1.558H7.79v1.558Z" id="a"/></defs><g fill="none" fill-rule="evenodd"><mask id="b" fill="#fff"><use xlink:href="#a"/></mask><g mask="url(#b)" fill="url(#c)"><path d="M0 0h26v26H0z"/></g></g></svg>