<svg width="44" height="44" viewBox="0 0 44 44" xmlns="http://www.w3.org/2000/svg" xmlns:xlink="http://www.w3.org/1999/xlink"><defs><radialGradient cx="50%" cy="0%" fx="50%" fy="0%" r="100.026%" gradientTransform="scale(.77494 1) rotate(88.688 .573 .074)" id="b"><stop stop-color="#FFD568" offset="0%"/><stop stop-color="#AA9D57" offset="100%"/></radialGradient><radialGradient cx="50%" cy="0%" fx="50%" fy="0%" r="100.016%" id="d"><stop stop-color="#FFD568" offset="0%"/><stop stop-color="#AA9D57" offset="100%"/></radialGradient><path d="M38.077 16.146a2.783 2.783 0 0 1-3.281 2.736l-2.284 8.155v2.93H13.18v-3.045l-2.265-8.044a2.782 2.782 0 1 1 2.052-1.665c2.779.938 7.072 1.702 9.003-1.53a2.782 2.782 0 1 1 1.752 0c1.128 2.081 3.64 4.258 9.118 1.775a2.782 2.782 0 1 1 5.236-1.312ZM13.18 33.866h19.33v-2.637H13.18v2.637Z" id="a"/></defs><g fill="none" fill-rule="evenodd"><mask id="c" fill="#fff"><use xlink:href="#a"/></mask><use fill="url(#b)" xlink:href="#a"/><g mask="url(#c)" fill="url(#d)"><path d="M0 0h44v44H0z"/></g><text font-family="Lato-Black, Lato" font-size="12" font-weight="700" letter-spacing="1.286" fill="#FFF">
                <tspan x="19.059" y="28.765">1</tspan>
            </text></g></svg>