<svg width="26" height="26" viewBox="0 0 26 26" xmlns="http://www.w3.org/2000/svg" xmlns:xlink="http://www.w3.org/1999/xlink"><defs><path d="M20.49 14.06c.34-.534.51-1.121.51-1.763 0-.743-.264-1.388-.791-1.937-.528-.548-1.153-.822-1.875-.822H16.5c.333-.714.5-1.406.5-2.076 0-.844-.121-1.515-.364-2.012a2.334 2.334 0 0 0-1.063-1.099A3.447 3.447 0 0 0 14 4c-.354 0-.667.133-.937.4-.3.303-.514.693-.646 1.169a15.72 15.72 0 0 0-.318 1.368c-.08.436-.203.745-.37.925-.34.382-.712.844-1.114 1.384-.702.945-1.177 1.504-1.427 1.677H6.333c-.368 0-.682.135-.942.406-.26.27-.391.597-.391.979v6.923c0 .382.13.708.39.978.261.27.575.406.943.406h3c.153 0 .632.145 1.438.433.854.31 1.606.546 2.255.709.65.162 1.307.243 1.974.243h1.344c.979 0 1.767-.29 2.364-.871.597-.58.893-1.372.886-2.374a3.122 3.122 0 0 0 .625-1.926c0-.158-.01-.313-.032-.465a3.199 3.199 0 0 0 .303-2.304ZM7.469 19.025a.63.63 0 0 1-.469.206.63.63 0 0 1-.469-.206.678.678 0 0 1-.198-.487c0-.187.066-.35.198-.486a.63.63 0 0 1 .47-.206.63.63 0 0 1 .468.206.677.677 0 0 1 .198.486c0 .188-.066.35-.198.487Zm11.974-5.84c-.15.331-.335.5-.557.508.104.122.19.294.26.514.07.22.104.42.104.6 0 .497-.184.926-.552 1.287.125.23.188.48.188.746 0 .267-.06.532-.183.795-.12.263-.286.453-.494.568.035.216.052.418.052.606 0 1.204-.667 1.806-2 1.806H15c-.91 0-2.098-.263-3.563-.79a5.717 5.717 0 0 0-1.432-.492 4.544 4.544 0 0 0-.344-.07 2.024 2.024 0 0 0-.328-.032H9v-6.923h.334a.87.87 0 0 0 .37-.097c.135-.065.274-.163.416-.292.142-.13.276-.258.401-.385.125-.126.264-.284.417-.475a21.432 21.432 0 0 0 .687-.904 18.69 18.69 0 0 1 1.041-1.309c.286-.31.492-.704.62-1.184.13-.48.235-.932.318-1.357.083-.426.216-.732.396-.92.667 0 1.111.17 1.334.508.222.34.333.862.333 1.569 0 .425-.167 1.004-.5 1.736-.334.732-.5 1.307-.5 1.725h3.666c.348 0 .657.139.928.417.27.277.406.6.406.968 0 .252-.075.544-.224.876Z" id="a"/></defs><g fill="none" fill-rule="evenodd"><mask id="b" fill="#fff"><use xlink:href="#a"/></mask><g mask="url(#b)" fill="#9F9F9F"><path d="M0 0h26v26H0z"/></g></g></svg>