<svg width="28" height="28" viewBox="0 0 28 28" xmlns="http://www.w3.org/2000/svg"><path d="M12.395 20.33 6.66 14.596a.478.478 0 0 0-.816.338v11.468a.477.477 0 0 0 .816.338l5.735-5.734a.478.478 0 0 0 0-.676ZM6.8 25.249v-9.162l4.58 4.58L6.8 25.25Zm15.06-10.757a.477.477 0 0 1 .296.442v11.468a.478.478 0 0 1-.816.338l-5.735-5.734a.478.478 0 0 1 0-.676l5.735-5.734a.478.478 0 0 1 .52-.104ZM14.033 24.97c.264 0 .478.213.478.478v1.911a.478.478 0 1 1-.956 0v-1.911c0-.265.214-.478.478-.478Zm0-3.823c.264 0 .478.214.478.478v1.911a.478.478 0 1 1-.956 0v-1.911c0-.264.214-.478.478-.478Zm0-3.823c.264 0 .478.214.478.478v1.911a.478.478 0 1 1-.956 0v-1.911c0-.264.214-.478.478-.478Zm0-3.823c.264 0 .478.214.478.478v1.911a.478.478 0 1 1-.956 0v-1.911c0-.264.214-.478.478-.478Zm8.859-3.437a.44.44 0 0 0-.621.01l-.549.568a7.561 7.561 0 0 0-2.243-4.35 7.57 7.57 0 0 0-5.423-2.138A7.563 7.563 0 0 0 8.71 6.478 7.564 7.564 0 0 0 6.575 11.9a.438.438 0 0 0 .447.431.44.44 0 0 0 .432-.447 6.69 6.69 0 0 1 1.889-4.797c2.58-2.672 6.853-2.746 9.526-.165a6.69 6.69 0 0 1 1.938 3.572l-.401-.387a.44.44 0 1 0-.61.632l1.264 1.22c.01.01.02.02.031.028l.036.026.037.021.039.018.04.014.042.01a.44.44 0 0 0 .396-.127l1.222-1.265a.44.44 0 0 0-.01-.621Z" fill="#FFF" fill-rule="evenodd"/></svg>