<svg width="26" height="26" viewBox="0 0 26 26" xmlns="http://www.w3.org/2000/svg" xmlns:xlink="http://www.w3.org/1999/xlink"><defs><path d="M5.944 5h15.112c.523 0 .944.446.944 1v10c0 .554-.421 1-.944 1H5.944C5.421 17 5 16.554 5 16V6c0-.554.421-1 .944-1Zm.944 10h13.223V7H6.888v8Zm-.944 3h15.112c.523 0 .944.298.944.667v.667c0 .369-.421.666-.944.666H5.944C5.421 20 5 19.703 5 19.334v-.667c0-.37.421-.667.944-.667Z" id="a"/></defs><g fill="none" fill-rule="evenodd"><mask id="b" fill="#fff"><use xlink:href="#a"/></mask><g mask="url(#b)" fill="#FFF"><path d="M0 0h26v26H0z"/></g></g></svg>