<svg width="26" height="26" viewBox="0 0 26 26" xmlns="http://www.w3.org/2000/svg" xmlns:xlink="http://www.w3.org/1999/xlink"><defs><path d="M4 17.783V23h5.217l10.435-10.434-5.218-5.218L4 17.783Zm4.552 3.612H7.21V19.79H5.605v-1.342l1.141-1.142 2.948 2.947-1.142 1.142ZM14.836 9.48c.183 0 .276.092.276.276a.29.29 0 0 1-.088.213l-6.798 6.797a.291.291 0 0 1-.213.088c-.184 0-.276-.092-.276-.276a.29.29 0 0 1 .088-.213l6.798-6.798a.29.29 0 0 1 .213-.087Zm7.7-2.07c.31.326.464.707.464 1.141 0 .444-.155.82-.464 1.13l-2.082 2.081-5.217-5.217 2.082-2.07A1.49 1.49 0 0 1 18.447 4c.444 0 .824.159 1.142.477l2.947 2.934Z" id="a"/></defs><g fill="none" fill-rule="evenodd"><mask id="b" fill="#fff"><use xlink:href="#a"/></mask><g mask="url(#b)" fill="#FFF"><path d="M0 0h26v26H0z"/></g></g></svg>