<svg width="26" height="26" viewBox="0 0 26 26" xmlns="http://www.w3.org/2000/svg" xmlns:xlink="http://www.w3.org/1999/xlink"><defs><path id="a" d="M14.667 0 0 4.77l4.312 13.846 14.668-4.77z"/><path id="c" d="M14.667 0 0 4.77l4.312 13.846 14.668-4.77z"/></defs><g fill="none" fill-rule="evenodd"><path d="m11.617 15.04.521 4.793a1.457 1.457 0 0 1-.984 1.548c-.856.278-1.748-.314-1.847-1.226l-.459-4.214 2.769-.9Z" fill="#77959E"/><g transform="translate(3 4.03)"><mask id="b" fill="#fff"><use xlink:href="#a"/></mask><path fill="#62808C" mask="url(#b)" d="m8.617 11.01.217 1.993-2.769.9-.217-1.993z"/></g><g transform="translate(3 4.03)"><mask id="d" fill="#fff"><use xlink:href="#c"/></mask><path fill="#ED5144" mask="url(#d)" d="m18.615 12.674-8.986-.962-.821.267-1.75-5.62.82-.267L14.668 0z"/></g><path fill="#D73E40" d="m11.516 15.073.292.937.82-.267 8.987.961-.292-.936-8.986-.962z"/><path fill="#ED5144" d="m4.39 13.264 2.75-.894 1.167 3.747-2.75.894z"/><path fill="#FFCC4D" d="m5.932 11.731 4.937-1.605 1.75 5.62-4.937 1.606z"/><path fill="#F0A44A" d="m7.39 16.415 4.938-1.606.291.937-4.937 1.606z"/><path fill="#FFF" d="m7.14 12.37.917-.298.292.936-.917.299zm1.834-.596.917-.299.291.937-.916.298z"/></g></svg>