<svg width="26" height="26" viewBox="0 0 26 26" xmlns="http://www.w3.org/2000/svg" xmlns:xlink="http://www.w3.org/1999/xlink"><defs><path d="M12.522 2.547c3.561 0 6.474 2.802 6.474 6.23v.65h-2.878v-.65c0-1.942-1.579-3.461-3.596-3.461-2.017 0-3.596 1.52-3.596 3.46v.652H6.048v-.652c0-3.427 2.913-6.229 6.474-6.229zM4.268 10.16h16.617a1.77 1.77 0 0 1 1.766 1.783v10.698c0 .99-.79 1.782-1.766 1.782H4.268a1.771 1.771 0 0 1-1.766-1.782V11.943c0-.989.79-1.783 1.766-1.783zm8.309 5.486c-.62 0-1.12.49-1.12 1.097v2.195c0 .608.5 1.097 1.12 1.097.62 0 1.12-.49 1.12-1.097v-2.195c0-.608-.5-1.097-1.12-1.097z" id="a"/></defs><g fill="none" fill-rule="evenodd"><mask id="b" fill="#fff"><use xlink:href="#a"/></mask><use fill="#747474" xlink:href="#a"/><g mask="url(#b)" fill="#9F9F9F"><path d="M0 0h26v26H0z"/></g></g></svg>