<svg width="68" height="68" viewBox="0 0 68 68" xmlns="http://www.w3.org/2000/svg" xmlns:xlink="http://www.w3.org/1999/xlink"><defs><radialGradient cx="50%" cy="0%" fx="50%" fy="0%" r="100.026%" gradientTransform="scale(.77494 1) rotate(88.688 .573 .074)" id="b"><stop stop-color="#FFD568" offset="0%"/><stop stop-color="#AA9D57" offset="100%"/></radialGradient><radialGradient cx="50%" cy="0%" fx="50%" fy="0%" r="100.016%" id="d"><stop stop-color="#FFA368" offset="0%"/><stop stop-color="#926557" offset="100%"/></radialGradient><path d="M58.846 24.953a4.3 4.3 0 0 1-4.3 4.3 4.42 4.42 0 0 1-.771-.072l-3.53 12.603v4.529H20.371v-4.706L16.87 29.176c-.26.049-.528.078-.8.078a4.3 4.3 0 0 1-4.3-4.301 4.301 4.301 0 1 1 8.271 1.65c4.295 1.448 10.93 2.63 13.914-2.367a4.299 4.299 0 1 1 2.708 0c1.743 3.218 5.625 6.581 14.092 2.745a4.299 4.299 0 0 1 3.789-6.329 4.301 4.301 0 0 1 4.302 4.3ZM20.371 52.338v-4.075h29.874v4.075H20.371Zm11.223-16.59.87.156c.228.036.402.021.522-.045s.218-.199.294-.399c.036-.128.092-.246.168-.354a1.26 1.26 0 0 1 .633-.471 1.35 1.35 0 0 1 .441-.069c.364 0 .645.1.843.3.198.2.297.49.297.87 0 .18-.025.346-.075.498a.835.835 0 0 1-.273.39 1.415 1.415 0 0 1-.546.252c-.232.06-.53.09-.894.09v1.164c.436 0 .781.031 1.035.093.254.062.446.15.576.264.13.114.213.252.249.414.036.162.054.343.054.543a1.295 1.295 0 0 1-.348.873c-.116.122-.26.221-.432.297a1.49 1.49 0 0 1-.606.114c-.184 0-.347-.026-.489-.078a1.263 1.263 0 0 1-.381-.219 1.732 1.732 0 0 1-.303-.333 3.833 3.833 0 0 1-.255-.42.497.497 0 0 0-.357-.264.89.89 0 0 0-.537.066l-.732.3c.132.388.286.727.462 1.017.176.29.387.531.633.723.246.192.531.336.855.432.324.096.698.144 1.122.144.4 0 .783-.057 1.149-.171.366-.114.687-.285.963-.513a2.5 2.5 0 0 0 .66-.849c.164-.338.246-.729.246-1.173 0-1.004-.5-1.67-1.5-1.998a2.49 2.49 0 0 0 .573-.27 1.586 1.586 0 0 0 .678-.945 2.75 2.75 0 0 0 .087-.729 2.107 2.107 0 0 0-.708-1.59 2.501 2.501 0 0 0-.837-.483 3.31 3.31 0 0 0-1.119-.177c-.392 0-.757.053-1.095.159a2.734 2.734 0 0 0-.903.477 2.64 2.64 0 0 0-.66.798 3.33 3.33 0 0 0-.36 1.116Z" id="a"/></defs><g fill="none" fill-rule="evenodd"><mask id="c" fill="#fff"><use xlink:href="#a"/></mask><use fill="url(#b)" xlink:href="#a"/><g mask="url(#c)" fill="url(#d)"><path d="M0 0h68v68H0z"/></g></g></svg>