<svg xmlns="http://www.w3.org/2000/svg" width="26" height="26" viewBox="0 0 26 26"><defs><style>.cls-2{fill:#c33}</style></defs><circle cx="13" cy="13" r="13" style="fill:#fff"/><path class="cls-2" d="M13.16 5.6a3 3 0 1 0-.61 5.94 3.11 3.11 0 0 0 .61 0 3.21 3.21 0 0 0 3.38-3 3.09 3.09 0 0 0-3.22-3Z"/><path class="cls-2" d="M7.58 11a5.09 5.09 0 0 1-.78-2.4 5.24 5.24 0 0 1 1.72-4A6.79 6.79 0 0 1 13.15 3a7.65 7.65 0 0 1 1.59.15A3.21 3.21 0 0 1 16.37.44 13 13 0 0 0 5.73 23.78a3.28 3.28 0 0 1-.58-.88 4.82 4.82 0 0 1-.37-2.09 4.11 4.11 0 0 1 2.53-3.55h.05a3 3 0 0 1-2.29-3A3.22 3.22 0 0 1 6 12a3.29 3.29 0 0 1 1.58-1Z"/><path class="cls-2" d="M19.93 5a1.32 1.32 0 0 1-1-1.58 1.29 1.29 0 0 1 .44-.72c-.06-.72-2.31-1-2.32 1.3a5.37 5.37 0 0 1 .84.67 5.67 5.67 0 0 1 1.64 3.81 4.93 4.93 0 0 1-1.93 4.23 7.42 7.42 0 0 1-8.13.45 1 1 0 0 0-1.11.06 1.18 1.18 0 0 0-.45.94c0 1 1.26 1.24 2.11 1.34 1.11.07 2.39 0 3.24 0a12.29 12.29 0 0 1 4.72.84 4.65 4.65 0 0 1 3.31 4.42A4.33 4.33 0 0 1 20 23.93a13 13 0 0 0 3.9-18 12.48 12.48 0 0 0-1.74-2.16 1.7 1.7 0 0 1-2 1.3Z"/><path class="cls-2" d="M13.18 18.27a8.41 8.41 0 0 0-4.24.84 2 2 0 0 0-1 1.75c0 2.72 4.44 2.68 5.31 2.68s4.93-.26 4.93-2.68-3.62-2.59-5-2.59Z"/></svg>