<svg width="26" height="26" viewBox="0 0 26 26" xmlns="http://www.w3.org/2000/svg" xmlns:xlink="http://www.w3.org/1999/xlink"><defs><linearGradient x1="0%" y1="0%" x2="98.361%" y2="98.361%" id="c"><stop stop-color="#EF3000" offset="0%"/><stop stop-color="#FFA000" offset="100%"/></linearGradient><path d="m19.848 10.114-4.131-.411a.719.719 0 0 1-.592-.461l-1.48-3.775a.696.696 0 0 0-1.314 0l-1.467 3.775a.705.705 0 0 1-.592.46l-4.131.412c-.616.062-.864.872-.402 1.308L8.85 14.3a.77.77 0 0 1 .225.735l-.935 4.037c-.142.635.51 1.158 1.054.821l3.444-2.13a.686.686 0 0 1 .722 0l3.445 2.13c.544.337 1.195-.174 1.053-.821l-.923-4.037a.768.768 0 0 1 .225-.735l3.113-2.878c.45-.436.189-1.246-.426-1.308Z" id="a"/></defs><g fill="none" fill-rule="evenodd"><mask id="b" fill="#fff"><use xlink:href="#a"/></mask><g mask="url(#b)" fill="url(#c)"><path d="M0 0h26v26H0z"/></g></g></svg>