<svg width="68" height="68" viewBox="0 0 68 68" xmlns="http://www.w3.org/2000/svg" xmlns:xlink="http://www.w3.org/1999/xlink"><defs><radialGradient cx="50%" cy="0%" fx="50%" fy="0%" r="100.026%" gradientTransform="scale(.77494 1) rotate(88.688 .573 .074)" id="b"><stop stop-color="#FFD568" offset="0%"/><stop stop-color="#AA9D57" offset="100%"/></radialGradient><radialGradient cx="50%" cy="0%" fx="50%" fy="0%" r="100.016%" id="d"><stop stop-color="#E9E9E9" offset="0%"/><stop stop-color="#8F9CA7" offset="100%"/></radialGradient><path d="M20.37 52.338v-4.075h29.875v4.075H20.371Zm38.476-27.385a4.3 4.3 0 0 1-4.3 4.3 4.42 4.42 0 0 1-.771-.072l-3.53 12.603v4.529H20.371v-4.706L16.87 29.176c-.26.049-.528.078-.8.078a4.3 4.3 0 0 1-4.3-4.301 4.301 4.301 0 1 1 8.271 1.65c4.295 1.448 10.93 2.63 13.914-2.367a4.299 4.299 0 1 1 2.708 0c1.743 3.218 5.625 6.581 14.092 2.745a4.299 4.299 0 0 1 3.789-6.329 4.301 4.301 0 0 1 4.302 4.3ZM36.874 40.482h-1.956c-.176 0-.364.017-.564.051-.2.034-.402.081-.606.141l1.848-1.89c.232-.236.452-.47.66-.702.208-.232.391-.471.549-.717a3.52 3.52 0 0 0 .375-.777c.092-.272.138-.568.138-.888 0-.372-.066-.712-.198-1.02a2.247 2.247 0 0 0-.558-.789 2.57 2.57 0 0 0-.867-.51 3.294 3.294 0 0 0-1.125-.183 3.67 3.67 0 0 0-1.098.159c-.34.106-.642.265-.906.477a2.64 2.64 0 0 0-.66.798 3.33 3.33 0 0 0-.36 1.116l.876.156c.224.036.397.021.519-.045s.219-.199.291-.399c.036-.128.092-.246.168-.354a1.26 1.26 0 0 1 .633-.471 1.35 1.35 0 0 1 .441-.069c.364 0 .646.101.846.303.2.202.3.497.3.885 0 .22-.028.43-.084.63-.056.2-.14.397-.252.591a4.292 4.292 0 0 1-.42.594 9.433 9.433 0 0 1-.582.633l-2.58 2.586a.87.87 0 0 0-.222.333 1.005 1.005 0 0 0-.066.339V42h6.036v-.972a.53.53 0 0 0-.153-.396c-.102-.1-.243-.15-.423-.15Z" id="a"/></defs><g fill="none" fill-rule="evenodd"><mask id="c" fill="#fff"><use xlink:href="#a"/></mask><use fill="url(#b)" xlink:href="#a"/><g mask="url(#c)" fill="url(#d)"><path d="M0 0h68v68H0z"/></g></g></svg>