<svg width="26" height="26" viewBox="0 0 26 26" xmlns="http://www.w3.org/2000/svg" xmlns:xlink="http://www.w3.org/1999/xlink"><defs><path id="a" d="M0 .653h16.347V17H0z"/></defs><g fill="none" fill-rule="evenodd"><g transform="translate(5 5)"><mask id="b" fill="#fff"><use xlink:href="#a"/></mask><path d="M16.347 8.827A8.175 8.175 0 1 1-.002 8.825a8.175 8.175 0 0 1 16.35.002" fill="#FFCC4D" mask="url(#b)"/></g><path d="M13.014 15.193c-1.348 0-2.242-.157-3.347-.372-.253-.049-.744 0-.744.744 0 1.487 1.709 3.347 4.09 3.347 2.382 0 4.09-1.86 4.09-3.347 0-.744-.49-.793-.744-.744-1.104.215-1.998.372-3.345.372" fill="#664500"/><path d="M12.368 7.069a2.118 2.118 0 0 0-4.034.116 2.117 2.117 0 0 0-2.998 2.875c.886 1.627 3.446 2.771 4.996 2.785 1.197-.985 2.473-3.48 2.141-5.303a2.137 2.137 0 0 0-.105-.473m1.291 0a2.119 2.119 0 0 1 4.034.116 2.117 2.117 0 0 1 2.998 2.875c-.887 1.627-3.446 2.771-4.996 2.785-1.198-.985-2.473-3.48-2.142-5.303.017-.158.051-.317.106-.473" fill="#ED5144"/></g></svg>