<svg width="26" height="26" viewBox="0 0 26 26" xmlns="http://www.w3.org/2000/svg" xmlns:xlink="http://www.w3.org/1999/xlink"><defs><path d="M8.08 20.609 6.86 8.75h11.88l-1.22 11.86s-.266 1.209-1.631 1.209H9.71a1.618 1.618 0 0 1-1.631-1.21Zm7.096-10.076-.594 8.91a.594.594 0 0 0 1.188 0l.594-8.91a.594.594 0 0 0-1.188 0Zm-2.97 0v8.91a.594.594 0 0 0 1.188 0v-8.91a.594.594 0 0 0-1.188 0ZM9.83 9.94a.594.594 0 0 0-.594.594l.594 8.91a.594.594 0 0 0 1.188 0l-.594-8.91a.594.594 0 0 0-.594-.594Zm8.553-3.562c.525 0 .95.399.95.891 0 .493-.425.891-.95.891H7.217c-.525 0-.95-.398-.95-.89 0-.493.425-.892.95-.892H9.83v-1.19c0-.79.366-1.188 1.188-1.188h3.564c.896 0 1.188.287 1.188 1.188v1.189h2.613Zm-3.801 0v-1.19h-3.564v1.189h3.564Z" id="a"/></defs><g fill="none" fill-rule="evenodd"><mask id="b" fill="#fff"><use xlink:href="#a"/></mask><g mask="url(#b)" fill="#72909D"><path d="M0 0h26v26H0z"/></g></g></svg>