<svg width="26" height="26" viewBox="0 0 26 26" xmlns="http://www.w3.org/2000/svg" xmlns:xlink="http://www.w3.org/1999/xlink"><defs><linearGradient x1="0%" y1="0%" x2="98.361%" y2="98.361%" id="c"><stop stop-color="#EF3000" offset="0%"/><stop stop-color="#FFA000" offset="100%"/></linearGradient><path d="M21.83 20.069 14.123 5.684a1.296 1.296 0 0 0-.472-.5A1.229 1.229 0 0 0 13 5c-.234 0-.452.061-.652.184s-.359.29-.472.5L4.17 20.07c-.234.43-.228.858.02 1.287a1.273 1.273 0 0 0 1.103.644h15.411c.228 0 .44-.058.638-.175.197-.115.352-.271.466-.47.248-.428.254-.857.02-1.286Zm-7.545-1.022a.33.33 0 0 1-.096.24.304.304 0 0 1-.225.097h-1.927a.303.303 0 0 1-.226-.097.329.329 0 0 1-.095-.24v-1.94c0-.096.032-.176.095-.24a.304.304 0 0 1 .226-.098h1.926a.33.33 0 0 1 .321.337v1.941Zm-.02-3.82a.228.228 0 0 1-.106.168.404.404 0 0 1-.236.066h-1.856a.426.426 0 0 1-.24-.066c-.068-.045-.101-.1-.101-.17l-.17-4.668c0-.095.033-.166.1-.214.086-.075.167-.112.24-.112h2.208c.074 0 .154.037.24.112.068.048.1.112.1.194l-.18 4.69Z" id="a"/></defs><g fill="none" fill-rule="evenodd"><mask id="b" fill="#fff"><use xlink:href="#a"/></mask><g mask="url(#b)" fill="url(#c)"><path d="M0 0h26v26H0z"/></g></g></svg>