<svg width="26" height="26" viewBox="0 0 26 26" xmlns="http://www.w3.org/2000/svg" xmlns:xlink="http://www.w3.org/1999/xlink"><defs><linearGradient x1="0%" y1="0%" x2="98.361%" y2="98.361%" id="c"><stop stop-color="#EF3000" offset="0%"/><stop stop-color="#FFA000" offset="100%"/></linearGradient><path d="M21.152 11.096h-.482v-2.28c0-4.217-3.309-7.74-7.444-7.815a17.076 17.076 0 0 0-.452 0C8.638 1.077 5.33 4.6 5.33 8.816v2.28h-.481c-.742 0-1.348.775-1.348 1.731v11.436c0 .955.606 1.737 1.348 1.737h16.304c.742 0 1.348-.782 1.348-1.737V12.827c0-.956-.606-1.731-1.348-1.731Zm-6.625 7.437v3.456c0 .395-.327.73-.719.73h-1.616a.734.734 0 0 1-.72-.73v-3.456c-.38-.378-.6-.9-.6-1.479 0-1.095.837-2.037 1.902-2.08.113-.005.339-.005.452 0 1.065.043 1.902.985 1.902 2.08a2.07 2.07 0 0 1-.6 1.48Zm2.364-7.437H8.504v-2.28c0-2.512 2.019-4.589 4.496-4.589 2.42 0 4.402 1.982 4.492 4.415h3.177v2.472h-3.778v-.018Z" id="a"/></defs><g fill="none" fill-rule="evenodd"><mask id="b" fill="#fff"><use xlink:href="#a"/></mask><g mask="url(#b)" fill="url(#c)"><path d="M0 0h26v26H0z"/></g></g></svg>