<svg width="26" height="26" viewBox="0 0 26 26" xmlns="http://www.w3.org/2000/svg" xmlns:xlink="http://www.w3.org/1999/xlink"><defs><path d="M19.65 5a.35.35 0 0 1 .35.35v15.74a.698.698 0 0 1-.699.698l-10.364-1.32.01-.007A3.39 3.39 0 0 1 6 17.107c0-.036.007-.07.01-.103V5.35A.35.35 0 0 1 6.36 5h13.29ZM9.393 10.258V9.21h7.212v1.048H9.393Zm0 2.514v-1.049h7.212v1.049H9.393Zm8.858 6.99V6.749H7.76v10.308c.003.032 0 .077 0 .109 0 .902.724 1.576 1.626 1.576.903 0 1.632-.734 1.632-1.635 0-.023-.002-.04 0-.06v.005-1.198c0-.192.133-.266.296-.162l6.938 4.07Z" id="a"/></defs><g fill="none" fill-rule="evenodd"><mask id="b" fill="#fff"><use xlink:href="#a"/></mask><g mask="url(#b)" fill="#72909D"><path d="M0 0h26v26H0z"/></g></g></svg>