<svg width="26" height="26" viewBox="0 0 26 26" xmlns="http://www.w3.org/2000/svg" xmlns:xlink="http://www.w3.org/1999/xlink"><defs><path d="M12.485 11.985a2.661 2.661 0 0 0 2.658-2.657 2.661 2.661 0 0 0-2.658-2.658 2.661 2.661 0 0 0-2.657 2.658 2.661 2.661 0 0 0 2.657 2.657ZM7.658 9.328A4.832 4.832 0 0 1 12.485 4.5a4.832 4.832 0 0 1 4.828 4.828 4.832 4.832 0 0 1-4.828 4.827 5.823 5.823 0 0 0-5.815 5.816l-.5.5H5l-.5-.5c0-2.132.831-4.14 2.339-5.647a7.987 7.987 0 0 1 2.24-1.58 4.817 4.817 0 0 1-1.421-3.416ZM20 15.845l.5.5v1.17l-.5.5h-1.956v1.956l-.5.5h-1.17l-.5-.5v-1.956h-1.956l-.5-.5v-1.17l.5-.5h1.956v-1.956l.5-.5h1.17l.5.5v1.956H20Z" id="a"/></defs><g fill="none" fill-rule="evenodd"><mask id="b" fill="#fff"><use xlink:href="#a"/></mask><g mask="url(#b)" fill="#9F9F9F"><path d="M0 0h26v26H0z"/></g></g></svg>