<svg xmlns="http://www.w3.org/2000/svg" width="28" height="28.014" viewBox="0 0 28 28.014"><path d="M14.118 28.014c-.323 0-.931-.568-1.518-1.117a4.516 4.516 0 0 0-1.268-.989.546.546 0 0 0-.107-.01 6.4 6.4 0 0 0-1.485.39l-.049.016a6.64 6.64 0 0 1-1.6.405.514.514 0 0 1-.209-.035c-.29-.135-.589-.908-.877-1.655a4.439 4.439 0 0 0-.708-1.436 4.687 4.687 0 0 0-1.594-.329 4.1 4.1 0 0 1-1.854-.437 3.84 3.84 0 0 1-.055-1.857 4.386 4.386 0 0 0 0-1.591 4.493 4.493 0 0 0-1.274-.962c-.683-.426-1.388-.866-1.462-1.172s.355-1.005.771-1.684c.322-.431.562-.917.707-1.435a4.413 4.413 0 0 0-.73-1.43c-.428-.679-.871-1.382-.8-1.688s.769-.761 1.445-1.2a4.531 4.531 0 0 0 1.264-.988 4.365 4.365 0 0 0-.025-1.583 3.847 3.847 0 0 1 .025-1.865 4.06 4.06 0 0 1 1.838-.466 4.647 4.647 0 0 0 1.581-.353c.313-.437.545-.928.683-1.448.276-.754.561-1.533.849-1.672a.52.52 0 0 1 .22-.039 6.627 6.627 0 0 1 1.586.394l.063.02c.471.182.963.308 1.464.374a.55.55 0 0 0 .114-.011c.475-.26.9-.603 1.255-1.013C12.952.584 13.555.002 13.877 0s.936.568 1.524 1.118c.36.402.789.737 1.267.989.033.007.066.01.1.01a6.356 6.356 0 0 0 1.467-.384l.067-.022a6.642 6.642 0 0 1 1.6-.406.503.503 0 0 1 .21.036c.292.134.591.909.88 1.658.148.516.387 1.002.707 1.433a4.62 4.62 0 0 0 1.578.328 4.057 4.057 0 0 1 1.841.438c.17.605.189 1.244.055 1.858a4.375 4.375 0 0 0 0 1.589c.368.396.805.723 1.289.964.689.425 1.4.865 1.474 1.17s-.356 1.009-.772 1.689c-.319.43-.556.915-.7 1.431.156.512.402.992.726 1.417.431.686.876 1.393.807 1.7s-.769.761-1.446 1.2a4.541 4.541 0 0 0-1.263.988 4.364 4.364 0 0 0 .025 1.587 3.826 3.826 0 0 1-.025 1.86 4.118 4.118 0 0 1-1.855.467 4.69 4.69 0 0 0-1.592.353 4.352 4.352 0 0 0-.672 1.45c-.268.753-.545 1.53-.833 1.668a.535.535 0 0 1-.22.038 6.847 6.847 0 0 1-1.6-.394l-.044-.014a6.556 6.556 0 0 0-1.491-.38.563.563 0 0 0-.116.011 4.474 4.474 0 0 0-1.245 1.016c-.576.563-1.17 1.143-1.491 1.145l-.011.003ZM5.54 16.5a4.918 4.918 0 0 1-1.12 1.92l1.13.46a5.443 5.443 0 0 0 1.14-2.1l-1.15-.28Zm6.89-.039-1.139.36a12.75 12.75 0 0 1 1.18 2.049l1.219-.409a13.408 13.408 0 0 0-1.26-2.001Zm9-.099v2.5h1.12v-2.7l1.2-.22-.18-1.111-1.02.191v-5.5h-1.12v5.7l-2.97.53.18 1.11 2.789-.5Zm-5.522-1.044v3.524h1.1v-3.51c.264.419.505.853.72 1.3l.73-.92c-.205-.274-1.155-1.4-1.45-1.69v-.069h1.48v-1.111h-1.48v-3.27h-1.1v3.27h-1.51v1.111h1.14a9.141 9.141 0 0 1-1.32 2.589c.219.392.4.804.54 1.23.489-.765.875-1.59 1.15-2.455Zm-5.478 1.365-1.12.19c.227.616.398 1.252.509 1.9l1.191-.229a11.012 11.012 0 0 0-.58-1.86Zm-2 .039-1.1.13c.111.631.175 1.269.19 1.91l1.16-.17a13.248 13.248 0 0 0-.25-1.87Zm-3.76-1.49v1.06h8.69v-1.06H12.2v-1.27h1.3v-1.06h-1.3v-1.28h.939v-1.05h-6c.147-.223.278-.457.39-.7l-1.16-.339a6.166 6.166 0 0 1-2.07 2.389c.338.242.661.502.97.78.205-.161.4-.333.586-.516v.72h-1.34v1.06h1.34v1.27l-1.185-.004Zm14.46-2.7-.56.85a8.518 8.518 0 0 1 1.64 1.25l.6-.949a8.424 8.424 0 0 0-1.681-1.15Zm-3.91-2.401-.83.221c.243.749.394 1.524.45 2.309l.89-.239c-.08-.781-.251-1.55-.51-2.291Zm2.451-.049a18.748 18.748 0 0 1-.55 2.34l.75.21c.2-.469.429-1.176.648-1.859v-.006c.051-.158.1-.314.15-.465l-1-.22h.002Zm1.929-.01-.57.8a8.14 8.14 0 0 1 1.55 1.3l.61-.89a7.535 7.535 0 0 0-1.59-1.212v.002Zm-8.49 5.16h-.76v-1.27h.76v1.269Zm-1.751.001h-.74v-1.27h.74v1.269Zm-1.73.001h-.72v-1.27h.72v1.269Zm3.48-2.329h-.76v-1.28h.76v1.279Zm-1.751.001h-.74v-1.28h.74v1.279Zm-1.73.001h-.72v-1.28h.72v1.279Z" style="fill:#fff"/></svg>