<svg width="26" height="26" viewBox="0 0 26 26" xmlns="http://www.w3.org/2000/svg" xmlns:xlink="http://www.w3.org/1999/xlink"><defs><path d="M12.841 0c.555-.008 2.04 1.833 2.582 1.95.542.116 2.689-.94 3.19-.71.502.232 1.032 2.526 1.468 2.861.437.334 2.815.288 3.165.71.349.42-.195 2.702.05 3.189.244.486 2.429 1.447 2.557 1.974.128.528-1.375 2.344-1.367 2.887.007.541 1.536 2.356 1.417 2.885-.119.53-2.27 1.535-2.506 2.026-.236.49.342 2.763 0 3.189-.343.427-2.759.418-3.19.76-.43.34-.894 2.646-1.392 2.885-.497.24-2.675-.808-3.215-.683s-1.977 1.997-2.531 2c-.555.008-2.04-1.833-2.582-1.95-.542-.115-2.688.94-3.19.71-.502-.232-1.032-2.527-1.468-2.86-.437-.336-2.84-.289-3.19-.71-.35-.421.194-2.704-.05-3.19-.246-.486-2.404-1.447-2.532-1.975-.128-.527 1.375-2.343 1.367-2.885 0-.542-1.537-2.356-1.417-2.886.118-.53 2.268-1.535 2.506-2.025.236-.49-.343-2.763 0-3.19.342-.427 2.732-.418 3.164-.76.43-.341.92-2.646 1.417-2.886.498-.239 2.65.81 3.19.684.54-.125 2.002-1.996 2.557-2Zm-1.906 11.381h-.659v-1.109h.66v1.11Zm0 2.02h-.659v-1.1h.66v1.1Zm-3.64-1.1h.624v1.1h-.624v-1.1Zm2.123 0v1.1h-.64v-1.1h.64Zm-.64-.92v-1.109h.64v1.11h-.64Zm-1.483-1.109h.624v1.11h-.624v-1.11Zm-.91 1.11H5.224v.918h1.161v1.1H5.354v.92h7.531v-.92H11.88v-1.1h1.126v-.919H11.88v-1.109h.814v-.91h-5.2c.13-.2.243-.399.338-.607l-1.005-.294a5.33 5.33 0 0 1-1.794 2.071c.234.165.65.494.84.676.174-.13.339-.286.512-.45v.623Zm-.269 5.182c.425-.45.798-1.161.988-1.82l-.996-.243c-.2.633-.59 1.3-.97 1.664l.978.4Zm1.543-1.76c.095.53.165 1.24.165 1.656l1.005-.147c-.009-.408-.104-1.092-.208-1.62l-.962.112Zm1.716.018c.19.529.39 1.23.442 1.647l1.031-.2c-.078-.424-.294-1.1-.502-1.612l-.97.165Zm1.716-.043c.381.554.84 1.317 1.023 1.776l1.057-.355c-.217-.477-.702-1.205-1.092-1.733l-.988.312Zm8.58-4.802c-.277-.32-.893-.762-1.378-1.048l-.494.693c.477.32 1.075.789 1.343 1.127l.53-.772Zm-2.27 1.83c.502.294 1.135.762 1.42 1.074l.52-.824c-.311-.303-.953-.728-1.455-.996l-.486.745Zm-.78-2.87a14.74 14.74 0 0 1-.477 2.028l.65.182c.216-.502.468-1.326.693-2.019l-.867-.19Zm-1.682 2.028a8.69 8.69 0 0 0-.442-1.984l-.72.19c.2.624.373 1.465.39 1.994l.772-.2Zm2.366 2.852a26.426 26.426 0 0 0-1.257-1.465v-.06h1.283v-.963h-1.283V8.495h-.953v2.834h-1.309v.962h.988c-.268.79-.71 1.716-1.144 2.245.156.286.382.754.468 1.066.373-.52.72-1.326.997-2.132v3.06h.953v-3.043c.252.4.494.85.624 1.127l.633-.797Zm4.585.2-.156-.963-.884.165V8.452h-.97v4.94l-2.575.46.156.961 2.418-.433v2.167h.97v-2.34l1.04-.19Z" id="a"/></defs><g fill="none" fill-rule="evenodd"><mask id="b" fill="#fff"><use xlink:href="#a"/></mask><g mask="url(#b)" fill="#9F9F9F"><path d="M0 0h26v26H0z"/></g></g></svg>