<svg width="26" height="26" viewBox="0 0 26 26" xmlns="http://www.w3.org/2000/svg" xmlns:xlink="http://www.w3.org/1999/xlink"><defs><path d="M4.322 16.324H4v-7.45a4.878 4.878 0 0 1 4.872-4.872h8.256A4.878 4.878 0 0 1 22 8.874v5.073h-.32l-3.875-4.083a1.278 1.278 0 0 0-1.965.128l-4.087 5.62a.225.225 0 0 1-.336.033L9.101 13.52a1.289 1.289 0 0 0-1.734.002l-3.045 2.803Zm4.702-9.273A1.856 1.856 0 0 0 7.17 8.905c0 1.023.832 1.855 1.854 1.855a1.857 1.857 0 0 0 1.855-1.855 1.857 1.857 0 0 0-1.855-1.854Zm12.426 7.956h.544v2.108a4.878 4.878 0 0 1-4.873 4.872H8.866A4.878 4.878 0 0 1 4 17.365h.522a.42.42 0 0 0 .05-.003l.019-.002.031-.005.022-.005a.42.42 0 0 0 .095-.033c.009-.004.017-.007.025-.012l.02-.01.023-.015a.386.386 0 0 0 .041-.03.598.598 0 0 0 .02-.015l.01-.01 3.198-2.943a.227.227 0 0 1 .305 0l2.316 2.126a1.283 1.283 0 0 0 1.903-.19l4.087-5.62a.223.223 0 0 1 .168-.092.222.222 0 0 1 .178.07l4.05 4.268a.524.524 0 0 0 .362.163h.005Z" id="a"/></defs><g fill="none" fill-rule="evenodd"><mask id="b" fill="#fff"><use xlink:href="#a"/></mask><g mask="url(#b)" fill="#FFF"><path d="M0 0h26v26H0z"/></g></g></svg>