<svg width="26" height="26" viewBox="0 0 26 26" xmlns="http://www.w3.org/2000/svg" xmlns:xlink="http://www.w3.org/1999/xlink"><defs><path d="M9.912 19.14c-1.18 0-2.01-.41-2.55-1.04l.82-1.12c.45.43.97.72 1.55.72.69 0 1.14-.29 1.14-.85 0-.64-.34-1.02-1.9-1.02v-1.25c1.27 0 1.67-.39 1.67-.98 0-.51-.3-.79-.85-.79-.5 0-.88.23-1.33.62l-.9-1.09c.69-.58 1.43-.92 2.31-.92 1.54 0 2.55.72 2.55 2.05 0 .74-.4 1.32-1.2 1.64v.05c.83.25 1.44.85 1.44 1.81 0 1.39-1.27 2.17-2.75 2.17Zm4.12-.14v-1.44h1.58v-4.23h-1.37v-1.1c.8-.15 1.32-.35 1.84-.67h1.31v6h1.34V19h-4.7ZM21 4h-1V2h-2v2H8V2H6v2H5c-1.1 0-2 .9-2 2v16c0 1.1.9 2 2 2h16c1.1 0 2-.9 2-2V6c0-1.1-.9-2-2-2Zm0 18H5V9h16v13Z" id="a"/></defs><g fill="none" fill-rule="evenodd"><mask id="b" fill="#fff"><use xlink:href="#a"/></mask><use fill="#72909D" fill-rule="nonzero" xlink:href="#a"/><g mask="url(#b)" fill="#72909D"><path d="M0 0h26v26H0z"/></g></g></svg>