<svg width="28" height="28" viewBox="0 0 28 28" xmlns="http://www.w3.org/2000/svg" xmlns:xlink="http://www.w3.org/1999/xlink"><defs><path id="a" d="M0 6h15v15H0z"/><mask id="b" maskContentUnits="userSpaceOnUse" maskUnits="objectBoundingBox" x="0" y="0" width="15" height="15" fill="#fff"><use xlink:href="#a"/></mask></defs><g transform="translate(4 3)" fill="none" fill-rule="evenodd"><path d="M5.535.418c.296 0 .536.24.536.536v.961A9.21 9.21 0 0 1 11.719 0a9.22 9.22 0 0 1 6.563 2.718A9.22 9.22 0 0 1 21 9.281a9.22 9.22 0 0 1-2.718 6.562.534.534 0 0 1-.757 0 .536.536 0 0 1 0-.757 8.156 8.156 0 0 0 2.404-5.805c0-4.527-3.683-8.21-8.21-8.21A8.15 8.15 0 0 0 7 2.56h.678a.535.535 0 1 1 0 1.071H5.535a.519.519 0 0 1-.095-.009h-.007a.574.574 0 0 1-.042-.011l-.009-.002a.5.5 0 0 1-.04-.014l-.01-.004a.526.526 0 0 1-.036-.017l-.01-.005a.54.54 0 0 1-.038-.022l-.008-.005a.537.537 0 0 1-.151-.15l-.005-.009a.637.637 0 0 1-.022-.037l-.005-.01A.43.43 0 0 1 5.04 3.3l-.004-.01a.593.593 0 0 1-.014-.04c0-.003 0-.006-.002-.009a.468.468 0 0 1-.01-.041l-.001-.007A.534.534 0 0 1 5 3.097V.954c0-.296.24-.536.535-.536Z" fill="#FFF"/><use stroke="#FFF" mask="url(#b)" stroke-width="2" stroke-linejoin="round" stroke-dasharray="1" xlink:href="#a"/></g></svg>