<svg width="26" height="26" viewBox="0 0 26 26" xmlns="http://www.w3.org/2000/svg" xmlns:xlink="http://www.w3.org/1999/xlink"><defs><path d="M13.199 5.27c4.502 0 8.15 3.272 8.15 7.309 0 4.036-3.648 7.308-8.15 7.308-.984 0-1.925-.16-2.8-.446 1.569-1.023 1.573-1.068 1.57-1.244a.29.29 0 0 0-.137-.239.284.284 0 0 0-.375.079c-.16.131-.938.653-1.715 1.16l-.007-.003c-1.892 1.143-4.686 1.535-4.686 1.535.914-.914 1.236-2.792 1.347-4.126-.85-1.155-1.348-2.537-1.348-4.024 0-4.037 3.65-7.308 8.151-7.308Zm-3.092 7.309a.843.843 0 1 0-1.687-.002.843.843 0 0 0 1.687.002Zm3.936 0a.844.844 0 1 0-1.687-.001.844.844 0 0 0 1.687 0Zm3.935 0a.844.844 0 1 0-1.687-.001.844.844 0 0 0 1.687 0Z" id="a"/></defs><g fill="none" fill-rule="evenodd"><mask id="b" fill="#fff"><use xlink:href="#a"/></mask><g mask="url(#b)" fill="#9F9F9F"><path d="M0 0h26v26H0z"/></g></g></svg>